<mxfile host="Electron" modified="2023-08-13T14:28:42.977Z" agent="Mozilla/5.0 (Macintosh; Intel Mac OS X 10_15_7) AppleWebKit/537.36 (KHTML, like Gecko) draw.io/21.6.8 Chrome/114.0.5735.289 Electron/25.5.0 Safari/537.36" etag="Ty1Rjf-LAW9r0rQ3IJts" version="21.6.8" type="device" pages="4">
  <diagram name="存量个人数据治理" id="f2RCXr-szaptFrR6acO9">
    <mxGraphModel dx="1912" dy="1209" grid="1" gridSize="10" guides="1" tooltips="1" connect="1" arrows="1" fold="1" page="1" pageScale="1" pageWidth="827" pageHeight="1169" math="0" shadow="0">
      <root>
        <mxCell id="0" />
        <mxCell id="1" parent="0" />
        <mxCell id="DDnwf4MLfgShzfSE2NPD-1" value="" style="rounded=0;whiteSpace=wrap;html=1;fillColor=none;dashed=1;strokeColor=#FF3333;strokeWidth=4;perimeterSpacing=0;dashPattern=1 1;movable=1;resizable=1;rotatable=1;deletable=1;editable=1;locked=0;connectable=1;" vertex="1" parent="1">
          <mxGeometry x="2034" y="441.5" width="160" height="108.5" as="geometry" />
        </mxCell>
        <mxCell id="OXN77DFbEK2L24LGMY6N-2" value="" style="rounded=0;whiteSpace=wrap;html=1;fillColor=none;dashed=1;strokeColor=#FF3333;strokeWidth=4;perimeterSpacing=0;dashPattern=1 1;" vertex="1" parent="1">
          <mxGeometry x="1834" y="438" width="160" height="108.5" as="geometry" />
        </mxCell>
        <mxCell id="0pEo9RN9CWT-zvnx627b-1" value="" style="rounded=0;whiteSpace=wrap;html=1;fillColor=none;dashed=1;dashPattern=1 1;strokeColor=#FF3333;strokeWidth=4;perimeterSpacing=0;movable=1;resizable=1;rotatable=1;deletable=1;editable=1;locked=0;connectable=1;" parent="1" vertex="1">
          <mxGeometry x="386" y="300" width="1384" height="793.5" as="geometry" />
        </mxCell>
        <mxCell id="0BFrpDiBS5q8Bj5oZKMj-3" value="" style="edgeStyle=orthogonalEdgeStyle;rounded=0;orthogonalLoop=1;jettySize=auto;html=1;" parent="1" source="0BFrpDiBS5q8Bj5oZKMj-1" target="0BFrpDiBS5q8Bj5oZKMj-2" edge="1">
          <mxGeometry relative="1" as="geometry" />
        </mxCell>
        <mxCell id="0BFrpDiBS5q8Bj5oZKMj-1" value="标准新增" style="rounded=0;whiteSpace=wrap;html=1;fillColor=#2E75B6;strokeColor=#6c8ebf;fontColor=#FFFFFF;fontSize=13;fontFamily=Helvetica;" parent="1" vertex="1">
          <mxGeometry x="246" y="350" width="120" height="60" as="geometry" />
        </mxCell>
        <mxCell id="0pEo9RN9CWT-zvnx627b-6" style="edgeStyle=orthogonalEdgeStyle;rounded=0;orthogonalLoop=1;jettySize=auto;html=1;exitX=1;exitY=0.5;exitDx=0;exitDy=0;entryX=0;entryY=0.5;entryDx=0;entryDy=0;" parent="1" source="0BFrpDiBS5q8Bj5oZKMj-2" target="0pEo9RN9CWT-zvnx627b-5" edge="1">
          <mxGeometry relative="1" as="geometry" />
        </mxCell>
        <mxCell id="0BFrpDiBS5q8Bj5oZKMj-2" value="扫描识别未挂标准资产" style="whiteSpace=wrap;html=1;rounded=0;" parent="1" vertex="1">
          <mxGeometry x="446" y="350" width="120" height="60" as="geometry" />
        </mxCell>
        <mxCell id="J1sYFGoK1APqOmeYqBDs-35" style="edgeStyle=orthogonalEdgeStyle;rounded=0;orthogonalLoop=1;jettySize=auto;html=1;entryX=0;entryY=0.5;entryDx=0;entryDy=0;" edge="1" parent="1" source="0BFrpDiBS5q8Bj5oZKMj-6" target="0BFrpDiBS5q8Bj5oZKMj-8">
          <mxGeometry relative="1" as="geometry" />
        </mxCell>
        <mxCell id="0BFrpDiBS5q8Bj5oZKMj-6" value="输出存量个人数据治理治理结果" style="whiteSpace=wrap;html=1;rounded=0;" parent="1" vertex="1">
          <mxGeometry x="1624" y="460" width="120" height="60" as="geometry" />
        </mxCell>
        <mxCell id="0BFrpDiBS5q8Bj5oZKMj-11" value="" style="edgeStyle=orthogonalEdgeStyle;rounded=0;orthogonalLoop=1;jettySize=auto;html=1;" parent="1" source="0BFrpDiBS5q8Bj5oZKMj-8" target="0BFrpDiBS5q8Bj5oZKMj-10" edge="1">
          <mxGeometry relative="1" as="geometry" />
        </mxCell>
        <mxCell id="0BFrpDiBS5q8Bj5oZKMj-8" value="确认治理结果" style="whiteSpace=wrap;html=1;rounded=0;" parent="1" vertex="1">
          <mxGeometry x="1854" y="460" width="120" height="60" as="geometry" />
        </mxCell>
        <mxCell id="0BFrpDiBS5q8Bj5oZKMj-10" value="后台批量同步结果至线上" style="whiteSpace=wrap;html=1;rounded=0;fillColor=#d5e8d4;strokeColor=#82b366;" parent="1" vertex="1">
          <mxGeometry x="2054" y="460" width="120" height="60" as="geometry" />
        </mxCell>
        <mxCell id="0BFrpDiBS5q8Bj5oZKMj-14" value="" style="edgeStyle=orthogonalEdgeStyle;rounded=0;orthogonalLoop=1;jettySize=auto;html=1;" parent="1" source="0BFrpDiBS5q8Bj5oZKMj-12" target="0BFrpDiBS5q8Bj5oZKMj-13" edge="1">
          <mxGeometry relative="1" as="geometry" />
        </mxCell>
        <mxCell id="0BFrpDiBS5q8Bj5oZKMj-12" value="标准删除" style="whiteSpace=wrap;html=1;fillColor=#2E75B6;strokeColor=#6c8ebf;fontColor=#FFFFFF;fontSize=13;fontFamily=Helvetica;" parent="1" vertex="1">
          <mxGeometry x="246" y="460" width="120" height="60" as="geometry" />
        </mxCell>
        <mxCell id="0BFrpDiBS5q8Bj5oZKMj-35" style="edgeStyle=orthogonalEdgeStyle;rounded=0;orthogonalLoop=1;jettySize=auto;html=1;exitX=1;exitY=0.5;exitDx=0;exitDy=0;entryX=0;entryY=0.5;entryDx=0;entryDy=0;" parent="1" source="0BFrpDiBS5q8Bj5oZKMj-13" target="0BFrpDiBS5q8Bj5oZKMj-28" edge="1">
          <mxGeometry relative="1" as="geometry" />
        </mxCell>
        <mxCell id="0BFrpDiBS5q8Bj5oZKMj-13" value="扫描识别挂靠待删除标准的资产" style="whiteSpace=wrap;html=1;" parent="1" vertex="1">
          <mxGeometry x="446" y="460" width="120" height="60" as="geometry" />
        </mxCell>
        <mxCell id="0BFrpDiBS5q8Bj5oZKMj-44" style="edgeStyle=orthogonalEdgeStyle;rounded=0;orthogonalLoop=1;jettySize=auto;html=1;exitX=1;exitY=0.5;exitDx=0;exitDy=0;" parent="1" source="0BFrpDiBS5q8Bj5oZKMj-20" target="0BFrpDiBS5q8Bj5oZKMj-41" edge="1">
          <mxGeometry relative="1" as="geometry" />
        </mxCell>
        <mxCell id="0BFrpDiBS5q8Bj5oZKMj-20" value="识别挂靠现有标准或新增标准" style="whiteSpace=wrap;html=1;fillColor=#d5e8d4;strokeColor=#82b366;" parent="1" vertex="1">
          <mxGeometry x="1210" y="460" width="120" height="60" as="geometry" />
        </mxCell>
        <mxCell id="0BFrpDiBS5q8Bj5oZKMj-33" value="否" style="edgeStyle=orthogonalEdgeStyle;rounded=0;orthogonalLoop=1;jettySize=auto;html=1;" parent="1" source="0BFrpDiBS5q8Bj5oZKMj-28" target="0BFrpDiBS5q8Bj5oZKMj-32" edge="1">
          <mxGeometry relative="1" as="geometry">
            <mxPoint as="offset" />
          </mxGeometry>
        </mxCell>
        <mxCell id="0BFrpDiBS5q8Bj5oZKMj-37" value="是" style="edgeStyle=orthogonalEdgeStyle;rounded=0;orthogonalLoop=1;jettySize=auto;html=1;exitX=1;exitY=0.5;exitDx=0;exitDy=0;" parent="1" source="0BFrpDiBS5q8Bj5oZKMj-28" target="0BFrpDiBS5q8Bj5oZKMj-20" edge="1">
          <mxGeometry x="-0.0079" relative="1" as="geometry">
            <mxPoint as="offset" />
            <mxPoint x="1166" y="489.9999999999998" as="targetPoint" />
          </mxGeometry>
        </mxCell>
        <mxCell id="0BFrpDiBS5q8Bj5oZKMj-28" value="是否为个人数据" style="rhombus;whiteSpace=wrap;html=1;fillColor=#d5e8d4;strokeColor=#82b366;" parent="1" vertex="1">
          <mxGeometry x="946" y="430" width="136" height="120" as="geometry" />
        </mxCell>
        <mxCell id="_p-sEq926JGqB2-p00BP-1" style="edgeStyle=orthogonalEdgeStyle;rounded=0;orthogonalLoop=1;jettySize=auto;html=1;exitX=0.5;exitY=1;exitDx=0;exitDy=0;" edge="1" parent="1" source="0BFrpDiBS5q8Bj5oZKMj-32" target="0BFrpDiBS5q8Bj5oZKMj-41">
          <mxGeometry relative="1" as="geometry" />
        </mxCell>
        <mxCell id="0BFrpDiBS5q8Bj5oZKMj-32" value="删除资产与标准关联" style="whiteSpace=wrap;html=1;fillColor=#d5e8d4;strokeColor=#82b366;" parent="1" vertex="1">
          <mxGeometry x="954" y="630" width="120" height="60" as="geometry" />
        </mxCell>
        <mxCell id="vSILaKFt_eQt2li9x0VA-24" style="edgeStyle=orthogonalEdgeStyle;rounded=0;orthogonalLoop=1;jettySize=auto;html=1;entryX=0;entryY=0.5;entryDx=0;entryDy=0;" parent="1" source="0BFrpDiBS5q8Bj5oZKMj-41" target="0BFrpDiBS5q8Bj5oZKMj-6" edge="1">
          <mxGeometry relative="1" as="geometry" />
        </mxCell>
        <mxCell id="0BFrpDiBS5q8Bj5oZKMj-41" value="人工核对扫描识别结果" style="whiteSpace=wrap;html=1;" parent="1" vertex="1">
          <mxGeometry x="1422" y="460" width="120" height="60" as="geometry" />
        </mxCell>
        <mxCell id="vSILaKFt_eQt2li9x0VA-5" value="" style="edgeStyle=orthogonalEdgeStyle;rounded=0;orthogonalLoop=1;jettySize=auto;html=1;exitX=1;exitY=0.5;exitDx=0;exitDy=0;" parent="1" source="0BFrpDiBS5q8Bj5oZKMj-46" target="vSILaKFt_eQt2li9x0VA-4" edge="1">
          <mxGeometry relative="1" as="geometry">
            <mxPoint x="366" y="773.5" as="sourcePoint" />
          </mxGeometry>
        </mxCell>
        <mxCell id="0BFrpDiBS5q8Bj5oZKMj-46" value="标准属性变更" style="whiteSpace=wrap;html=1;fillColor=#2E75B6;strokeColor=#6c8ebf;fontColor=#FFFFFF;fontSize=13;fontFamily=Helvetica;" parent="1" vertex="1">
          <mxGeometry x="246" y="701.5" width="120" height="60" as="geometry" />
        </mxCell>
        <mxCell id="0BFrpDiBS5q8Bj5oZKMj-48" value="存量个人数据治理" style="text;html=1;align=center;verticalAlign=middle;resizable=0;points=[];autosize=1;strokeColor=none;fillColor=none;" parent="1" vertex="1">
          <mxGeometry x="40" y="475" width="120" height="30" as="geometry" />
        </mxCell>
        <mxCell id="vSILaKFt_eQt2li9x0VA-8" style="edgeStyle=orthogonalEdgeStyle;rounded=0;orthogonalLoop=1;jettySize=auto;html=1;exitX=1;exitY=0.5;exitDx=0;exitDy=0;entryX=0;entryY=0.5;entryDx=0;entryDy=0;" parent="1" source="0BFrpDiBS5q8Bj5oZKMj-49" target="vSILaKFt_eQt2li9x0VA-4" edge="1">
          <mxGeometry relative="1" as="geometry">
            <mxPoint x="366" y="888.5" as="sourcePoint" />
          </mxGeometry>
        </mxCell>
        <mxCell id="0BFrpDiBS5q8Bj5oZKMj-49" value="标准分类变更" style="whiteSpace=wrap;html=1;fillColor=#2E75B6;strokeColor=#6c8ebf;fontColor=#FFFFFF;fontSize=13;fontFamily=Helvetica;" parent="1" vertex="1">
          <mxGeometry x="246" y="846.5" width="120" height="60" as="geometry" />
        </mxCell>
        <mxCell id="0BFrpDiBS5q8Bj5oZKMj-53" value="" style="edgeStyle=orthogonalEdgeStyle;rounded=0;orthogonalLoop=1;jettySize=auto;html=1;" parent="1" source="0BFrpDiBS5q8Bj5oZKMj-50" target="0BFrpDiBS5q8Bj5oZKMj-52" edge="1">
          <mxGeometry relative="1" as="geometry" />
        </mxCell>
        <mxCell id="0BFrpDiBS5q8Bj5oZKMj-50" value="标准安全等级变更" style="whiteSpace=wrap;html=1;fillColor=#2E75B6;strokeColor=#6c8ebf;fontColor=#FFFFFF;fontSize=13;fontFamily=Helvetica;" parent="1" vertex="1">
          <mxGeometry x="246" y="1003.5" width="120" height="60" as="geometry" />
        </mxCell>
        <mxCell id="0BFrpDiBS5q8Bj5oZKMj-52" value="大数据平台实时刷新挂靠资产安全等级" style="whiteSpace=wrap;html=1;fillColor=#d5e8d4;strokeColor=#82b366;" parent="1" vertex="1">
          <mxGeometry x="446" y="1003.5" width="260" height="60" as="geometry" />
        </mxCell>
        <mxCell id="vSILaKFt_eQt2li9x0VA-7" value="否" style="edgeStyle=orthogonalEdgeStyle;rounded=0;orthogonalLoop=1;jettySize=auto;html=1;" parent="1" source="vSILaKFt_eQt2li9x0VA-4" target="vSILaKFt_eQt2li9x0VA-6" edge="1">
          <mxGeometry relative="1" as="geometry" />
        </mxCell>
        <mxCell id="vSILaKFt_eQt2li9x0VA-10" value="是" style="edgeStyle=orthogonalEdgeStyle;rounded=0;orthogonalLoop=1;jettySize=auto;html=1;exitX=1;exitY=0.5;exitDx=0;exitDy=0;" parent="1" source="vSILaKFt_eQt2li9x0VA-4" target="vSILaKFt_eQt2li9x0VA-11" edge="1">
          <mxGeometry relative="1" as="geometry">
            <mxPoint x="726" y="791.5" as="targetPoint" />
          </mxGeometry>
        </mxCell>
        <mxCell id="vSILaKFt_eQt2li9x0VA-4" value="信安判断标准变更是否需要治理挂靠的资产" style="rhombus;whiteSpace=wrap;html=1;" parent="1" vertex="1">
          <mxGeometry x="436" y="723" width="140" height="137" as="geometry" />
        </mxCell>
        <mxCell id="vSILaKFt_eQt2li9x0VA-6" value="如业务规范化命名，未改变标准具体定义等标准变更无需治理" style="whiteSpace=wrap;html=1;" parent="1" vertex="1">
          <mxGeometry x="446" y="906.5" width="120" height="60" as="geometry" />
        </mxCell>
        <mxCell id="J1sYFGoK1APqOmeYqBDs-9" value="" style="edgeStyle=orthogonalEdgeStyle;rounded=0;orthogonalLoop=1;jettySize=auto;html=1;" edge="1" parent="1" source="vSILaKFt_eQt2li9x0VA-11" target="J1sYFGoK1APqOmeYqBDs-8">
          <mxGeometry relative="1" as="geometry" />
        </mxCell>
        <mxCell id="vSILaKFt_eQt2li9x0VA-11" value="扫描识别挂靠原标准的资产" style="whiteSpace=wrap;html=1;" parent="1" vertex="1">
          <mxGeometry x="641" y="761.5" width="120" height="60" as="geometry" />
        </mxCell>
        <mxCell id="vSILaKFt_eQt2li9x0VA-16" style="edgeStyle=orthogonalEdgeStyle;rounded=0;orthogonalLoop=1;jettySize=auto;html=1;exitX=1;exitY=0.5;exitDx=0;exitDy=0;entryX=0;entryY=0.5;entryDx=0;entryDy=0;" parent="1" source="vSILaKFt_eQt2li9x0VA-15" target="0BFrpDiBS5q8Bj5oZKMj-1" edge="1">
          <mxGeometry relative="1" as="geometry" />
        </mxCell>
        <mxCell id="vSILaKFt_eQt2li9x0VA-17" style="edgeStyle=orthogonalEdgeStyle;rounded=0;orthogonalLoop=1;jettySize=auto;html=1;exitX=1;exitY=0.5;exitDx=0;exitDy=0;entryX=0;entryY=0.5;entryDx=0;entryDy=0;" parent="1" source="vSILaKFt_eQt2li9x0VA-15" target="0BFrpDiBS5q8Bj5oZKMj-12" edge="1">
          <mxGeometry relative="1" as="geometry" />
        </mxCell>
        <mxCell id="vSILaKFt_eQt2li9x0VA-18" style="edgeStyle=orthogonalEdgeStyle;rounded=0;orthogonalLoop=1;jettySize=auto;html=1;" parent="1" source="vSILaKFt_eQt2li9x0VA-15" target="0BFrpDiBS5q8Bj5oZKMj-46" edge="1">
          <mxGeometry relative="1" as="geometry" />
        </mxCell>
        <mxCell id="vSILaKFt_eQt2li9x0VA-19" style="edgeStyle=orthogonalEdgeStyle;rounded=0;orthogonalLoop=1;jettySize=auto;html=1;entryX=0;entryY=0.5;entryDx=0;entryDy=0;" parent="1" source="vSILaKFt_eQt2li9x0VA-15" target="0BFrpDiBS5q8Bj5oZKMj-49" edge="1">
          <mxGeometry relative="1" as="geometry" />
        </mxCell>
        <mxCell id="vSILaKFt_eQt2li9x0VA-20" style="edgeStyle=orthogonalEdgeStyle;rounded=0;orthogonalLoop=1;jettySize=auto;html=1;entryX=0;entryY=0.5;entryDx=0;entryDy=0;" parent="1" source="vSILaKFt_eQt2li9x0VA-15" target="0BFrpDiBS5q8Bj5oZKMj-50" edge="1">
          <mxGeometry relative="1" as="geometry" />
        </mxCell>
        <mxCell id="vSILaKFt_eQt2li9x0VA-15" value="已认证&lt;br style=&quot;font-size: 13px;&quot;&gt;个人数据标准" style="whiteSpace=wrap;html=1;fillColor=#2E75B6;strokeColor=#6c8ebf;fontColor=#FFFFFF;fontSize=13;fontFamily=Helvetica;" parent="1" vertex="1">
          <mxGeometry x="56" y="536.5" width="80" height="280" as="geometry" />
        </mxCell>
        <mxCell id="0pEo9RN9CWT-zvnx627b-8" value="是" style="edgeStyle=orthogonalEdgeStyle;rounded=0;orthogonalLoop=1;jettySize=auto;html=1;exitX=1;exitY=0.5;exitDx=0;exitDy=0;" parent="1" source="0pEo9RN9CWT-zvnx627b-5" target="0pEo9RN9CWT-zvnx627b-7" edge="1">
          <mxGeometry relative="1" as="geometry" />
        </mxCell>
        <mxCell id="0pEo9RN9CWT-zvnx627b-5" value="是否可挂靠新增标准" style="rhombus;whiteSpace=wrap;html=1;fillColor=#d5e8d4;strokeColor=#82b366;" parent="1" vertex="1">
          <mxGeometry x="636" y="320" width="136" height="120" as="geometry" />
        </mxCell>
        <mxCell id="0pEo9RN9CWT-zvnx627b-9" style="edgeStyle=orthogonalEdgeStyle;rounded=0;orthogonalLoop=1;jettySize=auto;html=1;exitX=1;exitY=0.5;exitDx=0;exitDy=0;" parent="1" source="0pEo9RN9CWT-zvnx627b-7" target="0BFrpDiBS5q8Bj5oZKMj-41" edge="1">
          <mxGeometry relative="1" as="geometry">
            <mxPoint x="1578" y="380" as="targetPoint" />
          </mxGeometry>
        </mxCell>
        <mxCell id="0pEo9RN9CWT-zvnx627b-7" value="挂靠新增的标准" style="whiteSpace=wrap;html=1;fillColor=#d5e8d4;strokeColor=#82b366;" parent="1" vertex="1">
          <mxGeometry x="846" y="350" width="120" height="60" as="geometry" />
        </mxCell>
        <mxCell id="J1sYFGoK1APqOmeYqBDs-12" value="是" style="edgeStyle=orthogonalEdgeStyle;rounded=0;orthogonalLoop=1;jettySize=auto;html=1;" edge="1" parent="1" source="J1sYFGoK1APqOmeYqBDs-8" target="J1sYFGoK1APqOmeYqBDs-11">
          <mxGeometry relative="1" as="geometry" />
        </mxCell>
        <mxCell id="J1sYFGoK1APqOmeYqBDs-25" value="否" style="edgeStyle=orthogonalEdgeStyle;rounded=0;orthogonalLoop=1;jettySize=auto;html=1;" edge="1" parent="1" source="J1sYFGoK1APqOmeYqBDs-8" target="0BFrpDiBS5q8Bj5oZKMj-28">
          <mxGeometry relative="1" as="geometry">
            <Array as="points">
              <mxPoint x="936" y="792" />
              <mxPoint x="936" y="490" />
            </Array>
          </mxGeometry>
        </mxCell>
        <mxCell id="J1sYFGoK1APqOmeYqBDs-8" value="变更后的标准是否仍适用于资产挂靠" style="rhombus;whiteSpace=wrap;html=1;fillColor=#d5e8d4;strokeColor=#82b366;" vertex="1" parent="1">
          <mxGeometry x="811" y="736.5" width="110" height="111.5" as="geometry" />
        </mxCell>
        <mxCell id="J1sYFGoK1APqOmeYqBDs-11" value="资产挂靠的标准不做变更" style="whiteSpace=wrap;html=1;fillColor=#d5e8d4;strokeColor=#82b366;" vertex="1" parent="1">
          <mxGeometry x="806" y="891.5" width="120" height="60" as="geometry" />
        </mxCell>
        <mxCell id="J1sYFGoK1APqOmeYqBDs-36" value="" style="rounded=0;whiteSpace=wrap;html=1;fillColor=#d5e8d4;strokeColor=#82b366;" vertex="1" parent="1">
          <mxGeometry x="150" y="180" width="90" height="30" as="geometry" />
        </mxCell>
        <mxCell id="J1sYFGoK1APqOmeYqBDs-37" value="机器操作" style="text;html=1;align=center;verticalAlign=middle;resizable=0;points=[];autosize=1;strokeColor=none;fillColor=none;" vertex="1" parent="1">
          <mxGeometry x="61" y="180" width="70" height="30" as="geometry" />
        </mxCell>
        <mxCell id="J1sYFGoK1APqOmeYqBDs-40" value="人工操作" style="text;html=1;align=center;verticalAlign=middle;resizable=0;points=[];autosize=1;strokeColor=none;fillColor=none;" vertex="1" parent="1">
          <mxGeometry x="55" y="228" width="70" height="30" as="geometry" />
        </mxCell>
        <mxCell id="J1sYFGoK1APqOmeYqBDs-41" value="" style="rounded=0;whiteSpace=wrap;html=1;" vertex="1" parent="1">
          <mxGeometry x="150" y="228" width="90" height="30" as="geometry" />
        </mxCell>
        <mxCell id="Q8TXVBJbsQ5oqi9iLiji-2" value="操作角色" style="text;html=1;align=center;verticalAlign=middle;resizable=0;points=[];autosize=1;strokeColor=none;fillColor=none;" vertex="1" parent="1">
          <mxGeometry x="55" y="285" width="70" height="30" as="geometry" />
        </mxCell>
        <mxCell id="Q8TXVBJbsQ5oqi9iLiji-3" value="" style="rounded=0;whiteSpace=wrap;html=1;fillColor=#e51400;fontColor=#ffffff;strokeColor=#B20000;" vertex="1" parent="1">
          <mxGeometry x="150" y="285" width="90" height="30" as="geometry" />
        </mxCell>
        <mxCell id="Q8TXVBJbsQ5oqi9iLiji-4" value="&lt;font style=&quot;font-size: 15px;&quot;&gt;信息安全&lt;/font&gt;" style="rounded=0;whiteSpace=wrap;html=1;fillColor=#e51400;fontColor=#ffffff;strokeColor=#B20000;align=center;verticalAlign=middle;" vertex="1" parent="1">
          <mxGeometry x="1030" y="228" width="120" height="60" as="geometry" />
        </mxCell>
        <mxCell id="Q8TXVBJbsQ5oqi9iLiji-5" value="&lt;font style=&quot;font-size: 15px;&quot;&gt;资产 owner&lt;/font&gt;" style="rounded=0;whiteSpace=wrap;html=1;fillColor=#e51400;fontColor=#ffffff;strokeColor=#B20000;align=center;verticalAlign=middle;" vertex="1" parent="1">
          <mxGeometry x="1852" y="370" width="120" height="60" as="geometry" />
        </mxCell>
        <mxCell id="DDnwf4MLfgShzfSE2NPD-2" value="&lt;font style=&quot;font-size: 15px;&quot;&gt;信息安全&lt;/font&gt;" style="rounded=0;whiteSpace=wrap;html=1;fillColor=#e51400;fontColor=#ffffff;strokeColor=#B20000;align=center;verticalAlign=middle;" vertex="1" parent="1">
          <mxGeometry x="2054" y="370" width="120" height="60" as="geometry" />
        </mxCell>
      </root>
    </mxGraphModel>
  </diagram>
  <diagram id="fdAiffFE53WdC9ERsJNb" name="存量业务数据治理">
    <mxGraphModel dx="1793" dy="1134" grid="1" gridSize="10" guides="1" tooltips="1" connect="1" arrows="1" fold="1" page="1" pageScale="1" pageWidth="827" pageHeight="1169" math="0" shadow="0">
      <root>
        <mxCell id="0" />
        <mxCell id="1" parent="0" />
        <mxCell id="xl4D9hHCMlcZG6tz3_b5-2" value="" style="rounded=0;whiteSpace=wrap;html=1;fillColor=none;dashed=1;strokeColor=#FF3333;strokeWidth=4;perimeterSpacing=0;dashPattern=1 1;" vertex="1" parent="1">
          <mxGeometry x="1990" y="472.88" width="160" height="102.12" as="geometry" />
        </mxCell>
        <mxCell id="8NdglAbXuu7aNDXK-ixa-1" value="" style="rounded=0;whiteSpace=wrap;html=1;fillColor=none;dashed=1;dashPattern=1 1;strokeColor=#FF3333;strokeWidth=4;perimeterSpacing=0;movable=1;resizable=1;rotatable=1;deletable=1;editable=1;locked=0;connectable=1;" vertex="1" parent="1">
          <mxGeometry x="630" y="265" width="1010" height="770" as="geometry" />
        </mxCell>
        <mxCell id="UPuKGy_n7utz2KrcEJ-4-2" value="" style="edgeStyle=orthogonalEdgeStyle;rounded=0;orthogonalLoop=1;jettySize=auto;html=1;" edge="1" parent="1" source="_8YLSJeiBvQ_hG9sJmDb-1" target="UPuKGy_n7utz2KrcEJ-4-1">
          <mxGeometry relative="1" as="geometry" />
        </mxCell>
        <mxCell id="_8YLSJeiBvQ_hG9sJmDb-1" value="标准新增" style="rounded=0;whiteSpace=wrap;html=1;fillColor=#2E75B6;strokeColor=#6c8ebf;fontColor=#FFFFFF;fontSize=13;" parent="1" vertex="1">
          <mxGeometry x="490" y="335" width="120" height="60" as="geometry" />
        </mxCell>
        <mxCell id="aPW7XESkRP2ZmPpCm7Nv-3" value="" style="edgeStyle=orthogonalEdgeStyle;rounded=0;orthogonalLoop=1;jettySize=auto;html=1;" edge="1" parent="1" source="_8YLSJeiBvQ_hG9sJmDb-2" target="aPW7XESkRP2ZmPpCm7Nv-2">
          <mxGeometry relative="1" as="geometry" />
        </mxCell>
        <mxCell id="_8YLSJeiBvQ_hG9sJmDb-2" value="标准删除" style="whiteSpace=wrap;html=1;fillColor=#2E75B6;strokeColor=#6c8ebf;fontColor=#FFFFFF;fontSize=13;" parent="1" vertex="1">
          <mxGeometry x="490" y="495" width="120" height="60" as="geometry" />
        </mxCell>
        <mxCell id="gWj4PczUtg6weOS1lotW-5" style="edgeStyle=orthogonalEdgeStyle;rounded=0;orthogonalLoop=1;jettySize=auto;html=1;" edge="1" parent="1" source="_8YLSJeiBvQ_hG9sJmDb-3" target="gWj4PczUtg6weOS1lotW-2">
          <mxGeometry relative="1" as="geometry" />
        </mxCell>
        <mxCell id="_8YLSJeiBvQ_hG9sJmDb-3" value="标准属性变更" style="whiteSpace=wrap;html=1;fillColor=#2E75B6;strokeColor=#6c8ebf;fontColor=#FFFFFF;fontSize=13;" parent="1" vertex="1">
          <mxGeometry x="490" y="631.5" width="120" height="60" as="geometry" />
        </mxCell>
        <mxCell id="gWj4PczUtg6weOS1lotW-4" style="edgeStyle=orthogonalEdgeStyle;rounded=0;orthogonalLoop=1;jettySize=auto;html=1;entryX=0;entryY=0.5;entryDx=0;entryDy=0;" edge="1" parent="1" source="_8YLSJeiBvQ_hG9sJmDb-4" target="gWj4PczUtg6weOS1lotW-2">
          <mxGeometry relative="1" as="geometry" />
        </mxCell>
        <mxCell id="_8YLSJeiBvQ_hG9sJmDb-4" value="标准分类变更" style="whiteSpace=wrap;html=1;fillColor=#2E75B6;strokeColor=#6c8ebf;fontColor=#FFFFFF;fontSize=13;" parent="1" vertex="1">
          <mxGeometry x="490" y="741.5" width="120" height="60" as="geometry" />
        </mxCell>
        <mxCell id="5Q2gQMSaQFW5B0ApNc08-2" style="edgeStyle=orthogonalEdgeStyle;rounded=0;orthogonalLoop=1;jettySize=auto;html=1;entryX=0;entryY=0.5;entryDx=0;entryDy=0;" edge="1" parent="1" source="_8YLSJeiBvQ_hG9sJmDb-5" target="5Q2gQMSaQFW5B0ApNc08-1">
          <mxGeometry relative="1" as="geometry" />
        </mxCell>
        <mxCell id="_8YLSJeiBvQ_hG9sJmDb-5" value="标准安全等级变更" style="whiteSpace=wrap;html=1;fillColor=#2E75B6;strokeColor=#6c8ebf;fontColor=#FFFFFF;fontSize=13;" parent="1" vertex="1">
          <mxGeometry x="490" y="906.5" width="120" height="60" as="geometry" />
        </mxCell>
        <mxCell id="_8YLSJeiBvQ_hG9sJmDb-6" style="edgeStyle=orthogonalEdgeStyle;rounded=0;orthogonalLoop=1;jettySize=auto;html=1;exitX=1;exitY=0.5;exitDx=0;exitDy=0;entryX=0;entryY=0.5;entryDx=0;entryDy=0;" parent="1" source="_8YLSJeiBvQ_hG9sJmDb-11" target="_8YLSJeiBvQ_hG9sJmDb-1" edge="1">
          <mxGeometry relative="1" as="geometry" />
        </mxCell>
        <mxCell id="_8YLSJeiBvQ_hG9sJmDb-7" style="edgeStyle=orthogonalEdgeStyle;rounded=0;orthogonalLoop=1;jettySize=auto;html=1;exitX=1;exitY=0.5;exitDx=0;exitDy=0;entryX=0;entryY=0.5;entryDx=0;entryDy=0;" parent="1" source="_8YLSJeiBvQ_hG9sJmDb-11" target="_8YLSJeiBvQ_hG9sJmDb-2" edge="1">
          <mxGeometry relative="1" as="geometry" />
        </mxCell>
        <mxCell id="_8YLSJeiBvQ_hG9sJmDb-8" style="edgeStyle=orthogonalEdgeStyle;rounded=0;orthogonalLoop=1;jettySize=auto;html=1;" parent="1" source="_8YLSJeiBvQ_hG9sJmDb-11" target="_8YLSJeiBvQ_hG9sJmDb-3" edge="1">
          <mxGeometry relative="1" as="geometry" />
        </mxCell>
        <mxCell id="_8YLSJeiBvQ_hG9sJmDb-9" style="edgeStyle=orthogonalEdgeStyle;rounded=0;orthogonalLoop=1;jettySize=auto;html=1;entryX=0;entryY=0.5;entryDx=0;entryDy=0;" parent="1" source="_8YLSJeiBvQ_hG9sJmDb-11" target="_8YLSJeiBvQ_hG9sJmDb-4" edge="1">
          <mxGeometry relative="1" as="geometry" />
        </mxCell>
        <mxCell id="_8YLSJeiBvQ_hG9sJmDb-10" style="edgeStyle=orthogonalEdgeStyle;rounded=0;orthogonalLoop=1;jettySize=auto;html=1;entryX=0;entryY=0.5;entryDx=0;entryDy=0;" parent="1" source="_8YLSJeiBvQ_hG9sJmDb-11" target="_8YLSJeiBvQ_hG9sJmDb-5" edge="1">
          <mxGeometry relative="1" as="geometry" />
        </mxCell>
        <mxCell id="_8YLSJeiBvQ_hG9sJmDb-11" value="已认证&lt;br style=&quot;font-size: 13px;&quot;&gt;业务数据标准" style="whiteSpace=wrap;html=1;fillColor=#2E75B6;strokeColor=#6c8ebf;fontColor=#FFFFFF;fontSize=13;" parent="1" vertex="1">
          <mxGeometry x="300" y="521.5" width="80" height="280" as="geometry" />
        </mxCell>
        <mxCell id="SObMg967Jl87AiwSJ7Fb-4" value="" style="edgeStyle=orthogonalEdgeStyle;rounded=0;orthogonalLoop=1;jettySize=auto;html=1;" edge="1" parent="1" source="UPuKGy_n7utz2KrcEJ-4-1" target="SObMg967Jl87AiwSJ7Fb-3">
          <mxGeometry relative="1" as="geometry" />
        </mxCell>
        <mxCell id="UPuKGy_n7utz2KrcEJ-4-1" value="将未挂标准的资产与新标准精准匹配" style="rounded=0;whiteSpace=wrap;html=1;" vertex="1" parent="1">
          <mxGeometry x="680" y="335" width="120" height="60" as="geometry" />
        </mxCell>
        <mxCell id="3Lqqin_bQQ8mT-7moz7N-1" style="edgeStyle=orthogonalEdgeStyle;rounded=0;orthogonalLoop=1;jettySize=auto;html=1;entryX=0;entryY=0.5;entryDx=0;entryDy=0;" edge="1" parent="1" source="aPW7XESkRP2ZmPpCm7Nv-2" target="1gVcEIN0mbB3N-DpHILZ-3">
          <mxGeometry relative="1" as="geometry" />
        </mxCell>
        <mxCell id="aPW7XESkRP2ZmPpCm7Nv-2" value="将挂靠待删除标准的资产与业务数据标准库匹配" style="whiteSpace=wrap;html=1;" vertex="1" parent="1">
          <mxGeometry x="680" y="495" width="120" height="60" as="geometry" />
        </mxCell>
        <mxCell id="_sIPSlUrowqBmRl7EfGg-1" style="edgeStyle=orthogonalEdgeStyle;rounded=0;orthogonalLoop=1;jettySize=auto;html=1;entryX=0.5;entryY=0;entryDx=0;entryDy=0;" edge="1" parent="1" source="SObMg967Jl87AiwSJ7Fb-1" target="_sIPSlUrowqBmRl7EfGg-2">
          <mxGeometry relative="1" as="geometry">
            <mxPoint x="1470" y="515" as="targetPoint" />
          </mxGeometry>
        </mxCell>
        <mxCell id="SObMg967Jl87AiwSJ7Fb-1" value="增加辅助整改的标记——可能挂靠新标准的资产" style="whiteSpace=wrap;html=1;rounded=0;fillColor=#d5e8d4;strokeColor=#82b366;" vertex="1" parent="1">
          <mxGeometry x="1030" y="335" width="120" height="60" as="geometry" />
        </mxCell>
        <mxCell id="SObMg967Jl87AiwSJ7Fb-6" value="是" style="edgeStyle=orthogonalEdgeStyle;rounded=0;orthogonalLoop=1;jettySize=auto;html=1;entryX=0;entryY=0.5;entryDx=0;entryDy=0;" edge="1" parent="1" source="SObMg967Jl87AiwSJ7Fb-3" target="SObMg967Jl87AiwSJ7Fb-1">
          <mxGeometry relative="1" as="geometry" />
        </mxCell>
        <mxCell id="SObMg967Jl87AiwSJ7Fb-3" value="基于库表字段名&lt;br&gt;判断是否可匹配新标准" style="rhombus;whiteSpace=wrap;html=1;rounded=0;fillColor=#d5e8d4;strokeColor=#82b366;" vertex="1" parent="1">
          <mxGeometry x="860" y="291.25" width="120" height="147.5" as="geometry" />
        </mxCell>
        <mxCell id="5Q2gQMSaQFW5B0ApNc08-1" value="大数据平台实时刷新挂靠资产安全等级" style="whiteSpace=wrap;html=1;fillColor=#d5e8d4;strokeColor=#82b366;" vertex="1" parent="1">
          <mxGeometry x="680" y="906.5" width="260" height="60" as="geometry" />
        </mxCell>
        <mxCell id="gWj4PczUtg6weOS1lotW-1" value="否" style="edgeStyle=orthogonalEdgeStyle;rounded=0;orthogonalLoop=1;jettySize=auto;html=1;" edge="1" parent="1" source="gWj4PczUtg6weOS1lotW-2" target="gWj4PczUtg6weOS1lotW-3">
          <mxGeometry relative="1" as="geometry" />
        </mxCell>
        <mxCell id="2nej31EwOlxnjxt9Vf5k-2" style="edgeStyle=orthogonalEdgeStyle;rounded=0;orthogonalLoop=1;jettySize=auto;html=1;entryX=0;entryY=0.5;entryDx=0;entryDy=0;" edge="1" parent="1" source="gWj4PczUtg6weOS1lotW-2" target="2nej31EwOlxnjxt9Vf5k-1">
          <mxGeometry relative="1" as="geometry" />
        </mxCell>
        <mxCell id="gWj4PczUtg6weOS1lotW-2" value="信安判断标准变更是否需要治理挂靠的资产" style="rhombus;whiteSpace=wrap;html=1;" vertex="1" parent="1">
          <mxGeometry x="680" y="631.5" width="140" height="137" as="geometry" />
        </mxCell>
        <mxCell id="gWj4PczUtg6weOS1lotW-3" value="如业务规范化命名，未改变标准具体定义等标准变更无需治理" style="whiteSpace=wrap;html=1;" vertex="1" parent="1">
          <mxGeometry x="690" y="803.5" width="120" height="60" as="geometry" />
        </mxCell>
        <mxCell id="_sIPSlUrowqBmRl7EfGg-3" style="edgeStyle=orthogonalEdgeStyle;rounded=0;orthogonalLoop=1;jettySize=auto;html=1;" edge="1" parent="1" source="1gVcEIN0mbB3N-DpHILZ-1" target="_sIPSlUrowqBmRl7EfGg-2">
          <mxGeometry relative="1" as="geometry" />
        </mxCell>
        <mxCell id="1gVcEIN0mbB3N-DpHILZ-1" value="增加辅助整改标记——资产可能挂靠的标准" style="whiteSpace=wrap;html=1;rounded=0;fillColor=#d5e8d4;strokeColor=#82b366;" vertex="1" parent="1">
          <mxGeometry x="1203" y="495" width="120" height="60" as="geometry" />
        </mxCell>
        <mxCell id="1gVcEIN0mbB3N-DpHILZ-2" value="是" style="edgeStyle=orthogonalEdgeStyle;rounded=0;orthogonalLoop=1;jettySize=auto;html=1;entryX=0;entryY=0.5;entryDx=0;entryDy=0;" edge="1" parent="1" source="1gVcEIN0mbB3N-DpHILZ-3" target="1gVcEIN0mbB3N-DpHILZ-1">
          <mxGeometry relative="1" as="geometry" />
        </mxCell>
        <mxCell id="a804OsSK06hn5806fqO_-2" value="否" style="edgeStyle=orthogonalEdgeStyle;rounded=0;orthogonalLoop=1;jettySize=auto;html=1;" edge="1" parent="1" source="1gVcEIN0mbB3N-DpHILZ-3" target="a804OsSK06hn5806fqO_-1">
          <mxGeometry relative="1" as="geometry" />
        </mxCell>
        <mxCell id="1gVcEIN0mbB3N-DpHILZ-3" value="基于库表字段名&lt;br&gt;判断是否可匹配当前标准或其他标准" style="rhombus;whiteSpace=wrap;html=1;rounded=0;fillColor=#d5e8d4;strokeColor=#82b366;" vertex="1" parent="1">
          <mxGeometry x="1033" y="451.25" width="120" height="147.5" as="geometry" />
        </mxCell>
        <mxCell id="3Lqqin_bQQ8mT-7moz7N-2" style="edgeStyle=orthogonalEdgeStyle;rounded=0;orthogonalLoop=1;jettySize=auto;html=1;entryX=0;entryY=0.5;entryDx=0;entryDy=0;" edge="1" parent="1" source="2nej31EwOlxnjxt9Vf5k-1" target="1gVcEIN0mbB3N-DpHILZ-3">
          <mxGeometry relative="1" as="geometry" />
        </mxCell>
        <mxCell id="2nej31EwOlxnjxt9Vf5k-1" value="将挂靠原标准的资产与业务数据标准库匹配" style="whiteSpace=wrap;html=1;" vertex="1" parent="1">
          <mxGeometry x="860" y="670" width="120" height="60" as="geometry" />
        </mxCell>
        <mxCell id="VgTAfRGSz0D5lKfPmU4x-3" value="" style="edgeStyle=orthogonalEdgeStyle;rounded=0;orthogonalLoop=1;jettySize=auto;html=1;jumpSize=6;arcSize=20;" edge="1" parent="1" source="_sIPSlUrowqBmRl7EfGg-2" target="VgTAfRGSz0D5lKfPmU4x-2">
          <mxGeometry relative="1" as="geometry" />
        </mxCell>
        <mxCell id="_sIPSlUrowqBmRl7EfGg-2" value="人工核对并纠正辅助整改的标记结果" style="whiteSpace=wrap;html=1;" vertex="1" parent="1">
          <mxGeometry x="1360" y="495" width="120" height="60" as="geometry" />
        </mxCell>
        <mxCell id="VgTAfRGSz0D5lKfPmU4x-6" value="" style="edgeStyle=orthogonalEdgeStyle;rounded=0;orthogonalLoop=1;jettySize=auto;html=1;" edge="1" parent="1" source="VgTAfRGSz0D5lKfPmU4x-2" target="VgTAfRGSz0D5lKfPmU4x-5">
          <mxGeometry relative="1" as="geometry" />
        </mxCell>
        <mxCell id="VgTAfRGSz0D5lKfPmU4x-2" value="输出各业务线待治理数据清单" style="whiteSpace=wrap;html=1;" vertex="1" parent="1">
          <mxGeometry x="1510" y="495" width="120" height="60" as="geometry" />
        </mxCell>
        <mxCell id="VgTAfRGSz0D5lKfPmU4x-9" value="" style="edgeStyle=orthogonalEdgeStyle;rounded=0;orthogonalLoop=1;jettySize=auto;html=1;" edge="1" parent="1" source="VgTAfRGSz0D5lKfPmU4x-5" target="VgTAfRGSz0D5lKfPmU4x-8">
          <mxGeometry relative="1" as="geometry" />
        </mxCell>
        <mxCell id="VgTAfRGSz0D5lKfPmU4x-5" value="依赖辅助整改标记以及人工判断，对业务数据进行治理" style="whiteSpace=wrap;html=1;" vertex="1" parent="1">
          <mxGeometry x="1691" y="495" width="120" height="60" as="geometry" />
        </mxCell>
        <mxCell id="VgTAfRGSz0D5lKfPmU4x-11" value="" style="edgeStyle=orthogonalEdgeStyle;rounded=0;orthogonalLoop=1;jettySize=auto;html=1;" edge="1" parent="1" source="VgTAfRGSz0D5lKfPmU4x-8" target="VgTAfRGSz0D5lKfPmU4x-10">
          <mxGeometry relative="1" as="geometry" />
        </mxCell>
        <mxCell id="VgTAfRGSz0D5lKfPmU4x-8" value="输出业务数据治理结果" style="whiteSpace=wrap;html=1;" vertex="1" parent="1">
          <mxGeometry x="1841" y="495" width="120" height="60" as="geometry" />
        </mxCell>
        <mxCell id="VgTAfRGSz0D5lKfPmU4x-13" value="" style="edgeStyle=orthogonalEdgeStyle;rounded=0;orthogonalLoop=1;jettySize=auto;html=1;" edge="1" parent="1" source="VgTAfRGSz0D5lKfPmU4x-10" target="VgTAfRGSz0D5lKfPmU4x-12">
          <mxGeometry relative="1" as="geometry" />
        </mxCell>
        <mxCell id="VgTAfRGSz0D5lKfPmU4x-10" value="确认各业务线数据治理结果" style="whiteSpace=wrap;html=1;" vertex="1" parent="1">
          <mxGeometry x="2010" y="495" width="120" height="60" as="geometry" />
        </mxCell>
        <mxCell id="VgTAfRGSz0D5lKfPmU4x-12" value="后台批量同步结果至线上" style="whiteSpace=wrap;html=1;fillColor=#d5e8d4;strokeColor=#82b366;" vertex="1" parent="1">
          <mxGeometry x="2190" y="495" width="120" height="60" as="geometry" />
        </mxCell>
        <mxCell id="xl4D9hHCMlcZG6tz3_b5-1" value="" style="rounded=0;whiteSpace=wrap;html=1;fillColor=none;dashed=1;strokeColor=#FF3333;strokeWidth=4;perimeterSpacing=0;dashPattern=1 1;" vertex="1" parent="1">
          <mxGeometry x="1671" y="470.75" width="309" height="104.25" as="geometry" />
        </mxCell>
        <mxCell id="xl4D9hHCMlcZG6tz3_b5-3" value="" style="rounded=0;whiteSpace=wrap;html=1;fillColor=none;dashed=1;strokeColor=#FF3333;strokeWidth=4;perimeterSpacing=0;dashPattern=1 1;" vertex="1" parent="1">
          <mxGeometry x="2170" y="473.94" width="160" height="102.12" as="geometry" />
        </mxCell>
        <mxCell id="xMHfPTlKwkGA4hVAsQDp-1" value="&lt;font style=&quot;font-size: 15px;&quot;&gt;信息安全&lt;/font&gt;" style="rounded=0;whiteSpace=wrap;html=1;fillColor=#e51400;fontColor=#ffffff;strokeColor=#B20000;align=center;verticalAlign=middle;" vertex="1" parent="1">
          <mxGeometry x="1075" y="185" width="120" height="60" as="geometry" />
        </mxCell>
        <mxCell id="xMHfPTlKwkGA4hVAsQDp-2" value="&lt;font style=&quot;font-size: 15px;&quot;&gt;资产 owner&lt;/font&gt;" style="rounded=0;whiteSpace=wrap;html=1;fillColor=#e51400;fontColor=#ffffff;strokeColor=#B20000;align=center;verticalAlign=middle;" vertex="1" parent="1">
          <mxGeometry x="1765.5" y="395" width="120" height="60" as="geometry" />
        </mxCell>
        <mxCell id="xMHfPTlKwkGA4hVAsQDp-3" value="&lt;font style=&quot;font-size: 15px;&quot;&gt;数据 BP&lt;/font&gt;" style="rounded=0;whiteSpace=wrap;html=1;fillColor=#e51400;fontColor=#ffffff;strokeColor=#B20000;align=center;verticalAlign=middle;" vertex="1" parent="1">
          <mxGeometry x="2010" y="395" width="120" height="60" as="geometry" />
        </mxCell>
        <mxCell id="xMHfPTlKwkGA4hVAsQDp-4" value="&lt;font style=&quot;font-size: 15px;&quot;&gt;信息安全&lt;/font&gt;" style="rounded=0;whiteSpace=wrap;html=1;fillColor=#e51400;fontColor=#ffffff;strokeColor=#B20000;align=center;verticalAlign=middle;" vertex="1" parent="1">
          <mxGeometry x="2190" y="395" width="120" height="60" as="geometry" />
        </mxCell>
        <mxCell id="iB1An0Fg0DLQqxgWGzeS-1" value="" style="rounded=0;whiteSpace=wrap;html=1;fillColor=#d5e8d4;strokeColor=#82b366;" vertex="1" parent="1">
          <mxGeometry x="347" y="140" width="90" height="30" as="geometry" />
        </mxCell>
        <mxCell id="iB1An0Fg0DLQqxgWGzeS-2" value="机器操作" style="text;html=1;align=center;verticalAlign=middle;resizable=0;points=[];autosize=1;strokeColor=none;fillColor=none;" vertex="1" parent="1">
          <mxGeometry x="258" y="140" width="70" height="30" as="geometry" />
        </mxCell>
        <mxCell id="iB1An0Fg0DLQqxgWGzeS-3" value="人工操作" style="text;html=1;align=center;verticalAlign=middle;resizable=0;points=[];autosize=1;strokeColor=none;fillColor=none;" vertex="1" parent="1">
          <mxGeometry x="252" y="188" width="70" height="30" as="geometry" />
        </mxCell>
        <mxCell id="iB1An0Fg0DLQqxgWGzeS-4" value="" style="rounded=0;whiteSpace=wrap;html=1;" vertex="1" parent="1">
          <mxGeometry x="347" y="188" width="90" height="30" as="geometry" />
        </mxCell>
        <mxCell id="iB1An0Fg0DLQqxgWGzeS-5" value="操作角色" style="text;html=1;align=center;verticalAlign=middle;resizable=0;points=[];autosize=1;strokeColor=none;fillColor=none;" vertex="1" parent="1">
          <mxGeometry x="252" y="245" width="70" height="30" as="geometry" />
        </mxCell>
        <mxCell id="iB1An0Fg0DLQqxgWGzeS-6" value="" style="rounded=0;whiteSpace=wrap;html=1;fillColor=#e51400;fontColor=#ffffff;strokeColor=#B20000;" vertex="1" parent="1">
          <mxGeometry x="347" y="245" width="90" height="30" as="geometry" />
        </mxCell>
        <mxCell id="a804OsSK06hn5806fqO_-3" style="edgeStyle=orthogonalEdgeStyle;rounded=0;orthogonalLoop=1;jettySize=auto;html=1;" edge="1" parent="1" source="a804OsSK06hn5806fqO_-1" target="_sIPSlUrowqBmRl7EfGg-2">
          <mxGeometry relative="1" as="geometry" />
        </mxCell>
        <mxCell id="a804OsSK06hn5806fqO_-1" value="增加辅助整改标记——删除资产与标准关联" style="whiteSpace=wrap;html=1;fillColor=#d5e8d4;strokeColor=#82b366;rounded=0;" vertex="1" parent="1">
          <mxGeometry x="1033" y="670" width="120" height="60" as="geometry" />
        </mxCell>
      </root>
    </mxGraphModel>
  </diagram>
  <diagram id="XUi5z57uRmNAQCgHmhnG" name="个人数据抽检晾晒">
    <mxGraphModel dx="1687" dy="1067" grid="1" gridSize="10" guides="1" tooltips="1" connect="1" arrows="1" fold="1" page="1" pageScale="1" pageWidth="827" pageHeight="1169" math="0" shadow="0">
      <root>
        <mxCell id="0" />
        <mxCell id="1" parent="0" />
        <mxCell id="l1clojLNLju3PVygfZwk-1" value="" style="rounded=0;whiteSpace=wrap;html=1;fillColor=none;dashed=1;dashPattern=1 2;strokeColor=#FF3333;strokeWidth=4;perimeterSpacing=0;movable=1;resizable=1;rotatable=1;deletable=1;editable=1;locked=0;connectable=1;" vertex="1" parent="1">
          <mxGeometry x="240" y="180" width="1100" height="670" as="geometry" />
        </mxCell>
        <mxCell id="WAckH5H-nNxumJvLb8KV-5" value="" style="edgeStyle=orthogonalEdgeStyle;rounded=0;orthogonalLoop=1;jettySize=auto;html=1;" edge="1" parent="1" source="WAckH5H-nNxumJvLb8KV-1" target="WAckH5H-nNxumJvLb8KV-4">
          <mxGeometry relative="1" as="geometry" />
        </mxCell>
        <mxCell id="WAckH5H-nNxumJvLb8KV-1" value="&lt;div style=&quot;text-align: center; font-size: 12px;&quot;&gt;&lt;span style=&quot;background-color: initial; font-size: 12px;&quot;&gt;准确率&lt;/span&gt;&lt;/div&gt;&lt;div style=&quot;text-align: center; font-size: 12px;&quot;&gt;&lt;span style=&quot;background-color: initial; font-size: 12px;&quot;&gt;抽检范围：&lt;/span&gt;&lt;span style=&quot;background-color: initial; font-size: 12px;&quot;&gt;随机抽取各业务线挂靠已认证C3C4个人数据标准，且未抽检过的资产&lt;/span&gt;&lt;/div&gt;" style="whiteSpace=wrap;html=1;align=left;fillColor=#2E75B6;fontColor=#FFFFFF;fontSize=12;" vertex="1" parent="1">
          <mxGeometry x="40" y="240" width="150" height="80" as="geometry" />
        </mxCell>
        <mxCell id="WAckH5H-nNxumJvLb8KV-9" value="" style="edgeStyle=orthogonalEdgeStyle;rounded=0;orthogonalLoop=1;jettySize=auto;html=1;" edge="1" parent="1" source="WAckH5H-nNxumJvLb8KV-4" target="WAckH5H-nNxumJvLb8KV-8">
          <mxGeometry relative="1" as="geometry" />
        </mxCell>
        <mxCell id="WAckH5H-nNxumJvLb8KV-4" value="扫描识别抽检数据" style="whiteSpace=wrap;html=1;align=center;" vertex="1" parent="1">
          <mxGeometry x="285" y="250" width="120" height="60" as="geometry" />
        </mxCell>
        <mxCell id="WAckH5H-nNxumJvLb8KV-12" value="否" style="edgeStyle=orthogonalEdgeStyle;rounded=0;orthogonalLoop=1;jettySize=auto;html=1;" edge="1" parent="1" source="WAckH5H-nNxumJvLb8KV-8" target="WAckH5H-nNxumJvLb8KV-11">
          <mxGeometry relative="1" as="geometry" />
        </mxCell>
        <mxCell id="WAckH5H-nNxumJvLb8KV-14" value="是" style="edgeStyle=orthogonalEdgeStyle;rounded=0;orthogonalLoop=1;jettySize=auto;html=1;entryX=0;entryY=0.5;entryDx=0;entryDy=0;" edge="1" parent="1" source="WAckH5H-nNxumJvLb8KV-8" target="WAckH5H-nNxumJvLb8KV-17">
          <mxGeometry relative="1" as="geometry">
            <mxPoint x="645" y="280" as="targetPoint" />
          </mxGeometry>
        </mxCell>
        <mxCell id="WAckH5H-nNxumJvLb8KV-8" value="是否为个人数据" style="rhombus;whiteSpace=wrap;html=1;fillColor=#d5e8d4;strokeColor=#82b366;" vertex="1" parent="1">
          <mxGeometry x="482.5" y="240" width="95" height="80" as="geometry" />
        </mxCell>
        <mxCell id="WAckH5H-nNxumJvLb8KV-25" style="edgeStyle=orthogonalEdgeStyle;rounded=0;orthogonalLoop=1;jettySize=auto;html=1;entryX=0.5;entryY=1;entryDx=0;entryDy=0;" edge="1" parent="1" source="WAckH5H-nNxumJvLb8KV-11" target="WAckH5H-nNxumJvLb8KV-15">
          <mxGeometry relative="1" as="geometry" />
        </mxCell>
        <mxCell id="WAckH5H-nNxumJvLb8KV-11" value="判定错误挂标" style="whiteSpace=wrap;html=1;fillColor=#d5e8d4;strokeColor=#82b366;" vertex="1" parent="1">
          <mxGeometry x="470" y="380" width="120" height="60" as="geometry" />
        </mxCell>
        <mxCell id="WAckH5H-nNxumJvLb8KV-16" value="" style="edgeStyle=orthogonalEdgeStyle;rounded=0;orthogonalLoop=1;jettySize=auto;html=1;exitX=1;exitY=0.5;exitDx=0;exitDy=0;" edge="1" parent="1" source="WAckH5H-nNxumJvLb8KV-23" target="WAckH5H-nNxumJvLb8KV-15">
          <mxGeometry relative="1" as="geometry">
            <mxPoint x="1020" y="280" as="sourcePoint" />
          </mxGeometry>
        </mxCell>
        <mxCell id="WAckH5H-nNxumJvLb8KV-27" value="" style="edgeStyle=orthogonalEdgeStyle;rounded=0;orthogonalLoop=1;jettySize=auto;html=1;" edge="1" parent="1" source="WAckH5H-nNxumJvLb8KV-15" target="2Isaz1CTYuVF7EXmvCTc-8">
          <mxGeometry relative="1" as="geometry">
            <mxPoint x="1210.0000000000005" y="280" as="targetPoint" />
          </mxGeometry>
        </mxCell>
        <mxCell id="WAckH5H-nNxumJvLb8KV-15" value="人工核对判定结果" style="whiteSpace=wrap;html=1;" vertex="1" parent="1">
          <mxGeometry x="1010" y="250" width="120" height="60" as="geometry" />
        </mxCell>
        <mxCell id="WAckH5H-nNxumJvLb8KV-21" style="edgeStyle=orthogonalEdgeStyle;rounded=0;orthogonalLoop=1;jettySize=auto;html=1;entryX=0.5;entryY=1;entryDx=0;entryDy=0;" edge="1" parent="1" source="WAckH5H-nNxumJvLb8KV-17" target="WAckH5H-nNxumJvLb8KV-15">
          <mxGeometry relative="1" as="geometry">
            <Array as="points">
              <mxPoint x="700" y="380" />
              <mxPoint x="1070" y="380" />
            </Array>
          </mxGeometry>
        </mxCell>
        <mxCell id="WAckH5H-nNxumJvLb8KV-22" value="是" style="edgeLabel;html=1;align=center;verticalAlign=middle;resizable=0;points=[];" vertex="1" connectable="0" parent="WAckH5H-nNxumJvLb8KV-21">
          <mxGeometry x="-0.1214" y="-1" relative="1" as="geometry">
            <mxPoint as="offset" />
          </mxGeometry>
        </mxCell>
        <mxCell id="WAckH5H-nNxumJvLb8KV-24" value="否" style="edgeStyle=orthogonalEdgeStyle;rounded=0;orthogonalLoop=1;jettySize=auto;html=1;" edge="1" parent="1" source="WAckH5H-nNxumJvLb8KV-17" target="WAckH5H-nNxumJvLb8KV-23">
          <mxGeometry relative="1" as="geometry" />
        </mxCell>
        <mxCell id="WAckH5H-nNxumJvLb8KV-17" value="识别挂靠标准是否准确" style="rhombus;whiteSpace=wrap;html=1;fillColor=#d5e8d4;strokeColor=#82b366;" vertex="1" parent="1">
          <mxGeometry x="650" y="235" width="100" height="90" as="geometry" />
        </mxCell>
        <mxCell id="WAckH5H-nNxumJvLb8KV-23" value="识别可能挂靠的其他个人数据标准" style="whiteSpace=wrap;html=1;fillColor=#d5e8d4;strokeColor=#82b366;" vertex="1" parent="1">
          <mxGeometry x="820" y="250" width="120" height="60" as="geometry" />
        </mxCell>
        <mxCell id="WAckH5H-nNxumJvLb8KV-29" value="否" style="edgeStyle=orthogonalEdgeStyle;rounded=0;orthogonalLoop=1;jettySize=auto;html=1;" edge="1" parent="1" source="2Isaz1CTYuVF7EXmvCTc-8" target="WAckH5H-nNxumJvLb8KV-28">
          <mxGeometry relative="1" as="geometry">
            <mxPoint x="1330.0000000000005" y="280" as="sourcePoint" />
            <mxPoint as="offset" />
          </mxGeometry>
        </mxCell>
        <mxCell id="WAckH5H-nNxumJvLb8KV-31" value="" style="edgeStyle=orthogonalEdgeStyle;rounded=0;orthogonalLoop=1;jettySize=auto;html=1;" edge="1" parent="1" source="WAckH5H-nNxumJvLb8KV-28" target="WAckH5H-nNxumJvLb8KV-30">
          <mxGeometry relative="1" as="geometry" />
        </mxCell>
        <mxCell id="WAckH5H-nNxumJvLb8KV-28" value="确认抽检结果，反馈疑义项" style="whiteSpace=wrap;html=1;" vertex="1" parent="1">
          <mxGeometry x="1410" y="250" width="120" height="60" as="geometry" />
        </mxCell>
        <mxCell id="WAckH5H-nNxumJvLb8KV-33" value="" style="edgeStyle=orthogonalEdgeStyle;rounded=0;orthogonalLoop=1;jettySize=auto;html=1;" edge="1" parent="1" source="WAckH5H-nNxumJvLb8KV-30" target="WAckH5H-nNxumJvLb8KV-32">
          <mxGeometry relative="1" as="geometry" />
        </mxCell>
        <mxCell id="WAckH5H-nNxumJvLb8KV-30" value="1、纠正结果&lt;br&gt;2、统计各业务线落标准确率、召回率，晾晒结果至各数据 BP、数据 owner、资产 owner" style="whiteSpace=wrap;html=1;align=left;" vertex="1" parent="1">
          <mxGeometry x="1590" y="470" width="120" height="100" as="geometry" />
        </mxCell>
        <mxCell id="WAckH5H-nNxumJvLb8KV-35" value="" style="edgeStyle=orthogonalEdgeStyle;rounded=0;orthogonalLoop=1;jettySize=auto;html=1;" edge="1" parent="1" source="WAckH5H-nNxumJvLb8KV-32" target="WAckH5H-nNxumJvLb8KV-34">
          <mxGeometry relative="1" as="geometry" />
        </mxCell>
        <mxCell id="WAckH5H-nNxumJvLb8KV-32" value="根据整改建议，对挂标异常资产进行整改" style="whiteSpace=wrap;html=1;" vertex="1" parent="1">
          <mxGeometry x="1790" y="490" width="120" height="60" as="geometry" />
        </mxCell>
        <mxCell id="WAckH5H-nNxumJvLb8KV-34" value="1、验收整改结果&lt;br&gt;2、晾晒各中心异常落标整改率" style="whiteSpace=wrap;html=1;align=left;" vertex="1" parent="1">
          <mxGeometry x="1990" y="490" width="120" height="60" as="geometry" />
        </mxCell>
        <mxCell id="2Isaz1CTYuVF7EXmvCTc-3" value="" style="edgeStyle=orthogonalEdgeStyle;rounded=0;orthogonalLoop=1;jettySize=auto;html=1;" edge="1" parent="1" source="WAckH5H-nNxumJvLb8KV-36" target="2Isaz1CTYuVF7EXmvCTc-2">
          <mxGeometry relative="1" as="geometry" />
        </mxCell>
        <mxCell id="WAckH5H-nNxumJvLb8KV-36" value="&lt;div style=&quot;text-align: center; font-size: 12px;&quot;&gt;召回率&lt;/div&gt;&lt;div style=&quot;text-align: center; font-size: 12px;&quot;&gt;抽检范围：随机抽取各业务线未挂靠C3C4个人数据标准且未抽检过的资产&lt;br style=&quot;font-size: 12px;&quot;&gt;&lt;/div&gt;" style="whiteSpace=wrap;html=1;align=left;fillColor=#2E75B6;fontColor=#FFFFFF;fontSize=12;" vertex="1" parent="1">
          <mxGeometry x="30" y="560" width="150" height="80" as="geometry" />
        </mxCell>
        <mxCell id="2Isaz1CTYuVF7EXmvCTc-7" style="edgeStyle=orthogonalEdgeStyle;rounded=0;orthogonalLoop=1;jettySize=auto;html=1;entryX=0;entryY=0.5;entryDx=0;entryDy=0;" edge="1" parent="1" source="2Isaz1CTYuVF7EXmvCTc-2" target="2Isaz1CTYuVF7EXmvCTc-5">
          <mxGeometry relative="1" as="geometry" />
        </mxCell>
        <mxCell id="2Isaz1CTYuVF7EXmvCTc-2" value="扫描识别抽检数据" style="whiteSpace=wrap;html=1;align=center;" vertex="1" parent="1">
          <mxGeometry x="275" y="570" width="120" height="60" as="geometry" />
        </mxCell>
        <mxCell id="2Isaz1CTYuVF7EXmvCTc-4" value="否" style="edgeStyle=orthogonalEdgeStyle;rounded=0;orthogonalLoop=1;jettySize=auto;html=1;entryX=0.5;entryY=1;entryDx=0;entryDy=0;" edge="1" parent="1" source="2Isaz1CTYuVF7EXmvCTc-5" target="2Isaz1CTYuVF7EXmvCTc-16">
          <mxGeometry relative="1" as="geometry">
            <mxPoint x="530" y="700" as="targetPoint" />
            <Array as="points">
              <mxPoint x="530" y="730" />
              <mxPoint x="920" y="730" />
            </Array>
          </mxGeometry>
        </mxCell>
        <mxCell id="2Isaz1CTYuVF7EXmvCTc-15" value="是" style="edgeStyle=orthogonalEdgeStyle;rounded=0;orthogonalLoop=1;jettySize=auto;html=1;entryX=0;entryY=0.5;entryDx=0;entryDy=0;" edge="1" parent="1" source="2Isaz1CTYuVF7EXmvCTc-5" target="2Isaz1CTYuVF7EXmvCTc-14">
          <mxGeometry relative="1" as="geometry" />
        </mxCell>
        <mxCell id="2Isaz1CTYuVF7EXmvCTc-5" value="是否为个人数据" style="rhombus;whiteSpace=wrap;html=1;fillColor=#d5e8d4;strokeColor=#82b366;" vertex="1" parent="1">
          <mxGeometry x="482.5" y="560" width="95" height="80" as="geometry" />
        </mxCell>
        <mxCell id="2Isaz1CTYuVF7EXmvCTc-12" value="是" style="edgeStyle=orthogonalEdgeStyle;rounded=0;orthogonalLoop=1;jettySize=auto;html=1;entryX=0.5;entryY=0;entryDx=0;entryDy=0;" edge="1" parent="1" source="2Isaz1CTYuVF7EXmvCTc-8" target="2Isaz1CTYuVF7EXmvCTc-10">
          <mxGeometry relative="1" as="geometry" />
        </mxCell>
        <mxCell id="2Isaz1CTYuVF7EXmvCTc-8" value="是否为数据入湖机器自动落标或经安全审批" style="rhombus;whiteSpace=wrap;html=1;fillColor=#d5e8d4;strokeColor=#82b366;" vertex="1" parent="1">
          <mxGeometry x="1190" y="210" width="120" height="140" as="geometry" />
        </mxCell>
        <mxCell id="2Isaz1CTYuVF7EXmvCTc-13" style="edgeStyle=orthogonalEdgeStyle;rounded=0;orthogonalLoop=1;jettySize=auto;html=1;" edge="1" parent="1" source="2Isaz1CTYuVF7EXmvCTc-10" target="WAckH5H-nNxumJvLb8KV-30">
          <mxGeometry relative="1" as="geometry" />
        </mxCell>
        <mxCell id="2Isaz1CTYuVF7EXmvCTc-10" value="纳入统计安全个人数据落标准确率" style="whiteSpace=wrap;html=1;" vertex="1" parent="1">
          <mxGeometry x="1190" y="400" width="120" height="60" as="geometry" />
        </mxCell>
        <mxCell id="2Isaz1CTYuVF7EXmvCTc-17" style="edgeStyle=orthogonalEdgeStyle;rounded=0;orthogonalLoop=1;jettySize=auto;html=1;" edge="1" parent="1" source="2Isaz1CTYuVF7EXmvCTc-14" target="2Isaz1CTYuVF7EXmvCTc-16">
          <mxGeometry relative="1" as="geometry" />
        </mxCell>
        <mxCell id="2Isaz1CTYuVF7EXmvCTc-14" value="判定漏挂标准&lt;br&gt;识别可能挂靠的其他个人数据标准" style="whiteSpace=wrap;html=1;fillColor=#d5e8d4;strokeColor=#82b366;" vertex="1" parent="1">
          <mxGeometry x="650" y="570" width="120" height="60" as="geometry" />
        </mxCell>
        <mxCell id="2Isaz1CTYuVF7EXmvCTc-20" style="edgeStyle=orthogonalEdgeStyle;rounded=0;orthogonalLoop=1;jettySize=auto;html=1;" edge="1" parent="1" source="2Isaz1CTYuVF7EXmvCTc-16" target="2Isaz1CTYuVF7EXmvCTc-19">
          <mxGeometry relative="1" as="geometry" />
        </mxCell>
        <mxCell id="2Isaz1CTYuVF7EXmvCTc-16" value="人工核对识别结果" style="whiteSpace=wrap;html=1;" vertex="1" parent="1">
          <mxGeometry x="860" y="570" width="120" height="60" as="geometry" />
        </mxCell>
        <mxCell id="2Isaz1CTYuVF7EXmvCTc-22" value="否" style="edgeStyle=orthogonalEdgeStyle;rounded=0;orthogonalLoop=1;jettySize=auto;html=1;entryX=0;entryY=0.5;entryDx=0;entryDy=0;" edge="1" parent="1" source="2Isaz1CTYuVF7EXmvCTc-19" target="2Isaz1CTYuVF7EXmvCTc-21">
          <mxGeometry relative="1" as="geometry" />
        </mxCell>
        <mxCell id="2Isaz1CTYuVF7EXmvCTc-24" value="是" style="edgeStyle=orthogonalEdgeStyle;rounded=0;orthogonalLoop=1;jettySize=auto;html=1;" edge="1" parent="1" source="2Isaz1CTYuVF7EXmvCTc-19" target="2Isaz1CTYuVF7EXmvCTc-23">
          <mxGeometry relative="1" as="geometry" />
        </mxCell>
        <mxCell id="2Isaz1CTYuVF7EXmvCTc-19" value="是否为ods 层数据" style="rhombus;whiteSpace=wrap;html=1;fillColor=#d5e8d4;strokeColor=#82b366;" vertex="1" parent="1">
          <mxGeometry x="1190" y="530" width="120" height="140" as="geometry" />
        </mxCell>
        <mxCell id="2Isaz1CTYuVF7EXmvCTc-26" style="edgeStyle=orthogonalEdgeStyle;rounded=0;orthogonalLoop=1;jettySize=auto;html=1;entryX=0.5;entryY=1;entryDx=0;entryDy=0;" edge="1" parent="1" source="2Isaz1CTYuVF7EXmvCTc-21" target="WAckH5H-nNxumJvLb8KV-30">
          <mxGeometry relative="1" as="geometry" />
        </mxCell>
        <mxCell id="2Isaz1CTYuVF7EXmvCTc-21" value="确认抽检结果，反馈疑义项" style="whiteSpace=wrap;html=1;" vertex="1" parent="1">
          <mxGeometry x="1420" y="570" width="120" height="60" as="geometry" />
        </mxCell>
        <mxCell id="2Isaz1CTYuVF7EXmvCTc-25" style="edgeStyle=orthogonalEdgeStyle;rounded=0;orthogonalLoop=1;jettySize=auto;html=1;" edge="1" parent="1" source="2Isaz1CTYuVF7EXmvCTc-23" target="WAckH5H-nNxumJvLb8KV-30">
          <mxGeometry relative="1" as="geometry" />
        </mxCell>
        <mxCell id="2Isaz1CTYuVF7EXmvCTc-23" value="纳入统计安全个人数据落标召回率" style="whiteSpace=wrap;html=1;" vertex="1" parent="1">
          <mxGeometry x="1190" y="730" width="120" height="60" as="geometry" />
        </mxCell>
        <mxCell id="2Isaz1CTYuVF7EXmvCTc-27" value="抽检频率：月度&lt;br style=&quot;border-color: var(--border-color);&quot;&gt;&lt;span style=&quot;&quot;&gt;抽样比例：5%&lt;/span&gt;" style="text;html=1;align=center;verticalAlign=middle;resizable=0;points=[];autosize=1;strokeColor=none;fillColor=none;" vertex="1" parent="1">
          <mxGeometry x="60" y="190" width="110" height="40" as="geometry" />
        </mxCell>
        <mxCell id="DV8rQdW6MVohSCi5heKv-1" value="&lt;font style=&quot;font-size: 15px;&quot;&gt;信息安全&lt;/font&gt;" style="rounded=0;whiteSpace=wrap;html=1;fillColor=#e51400;fontColor=#ffffff;strokeColor=#B20000;align=center;verticalAlign=middle;" vertex="1" parent="1">
          <mxGeometry x="700" y="80" width="120" height="60" as="geometry" />
        </mxCell>
        <mxCell id="DV8rQdW6MVohSCi5heKv-2" value="&lt;font style=&quot;font-size: 15px;&quot;&gt;资产 owner、数据 owner、数据 bp&lt;/font&gt;" style="rounded=0;whiteSpace=wrap;html=1;fillColor=#e51400;fontColor=#ffffff;strokeColor=#B20000;align=center;verticalAlign=middle;" vertex="1" parent="1">
          <mxGeometry x="1410" y="80" width="120" height="60" as="geometry" />
        </mxCell>
        <mxCell id="DV8rQdW6MVohSCi5heKv-7" value="&lt;font style=&quot;font-size: 15px;&quot;&gt;信息安全&lt;/font&gt;" style="rounded=0;whiteSpace=wrap;html=1;fillColor=#e51400;fontColor=#ffffff;strokeColor=#B20000;align=center;verticalAlign=middle;" vertex="1" parent="1">
          <mxGeometry x="1590" y="80" width="120" height="60" as="geometry" />
        </mxCell>
        <mxCell id="DV8rQdW6MVohSCi5heKv-9" value="&lt;font style=&quot;font-size: 15px;&quot;&gt;信息安全&lt;/font&gt;" style="rounded=0;whiteSpace=wrap;html=1;fillColor=#e51400;fontColor=#ffffff;strokeColor=#B20000;align=center;verticalAlign=middle;" vertex="1" parent="1">
          <mxGeometry x="1990" y="80" width="120" height="60" as="geometry" />
        </mxCell>
        <mxCell id="DV8rQdW6MVohSCi5heKv-11" value="&lt;font style=&quot;font-size: 15px;&quot;&gt;数据 BP、资产 owner&lt;/font&gt;" style="rounded=0;whiteSpace=wrap;html=1;fillColor=#e51400;fontColor=#ffffff;strokeColor=#B20000;align=center;verticalAlign=middle;" vertex="1" parent="1">
          <mxGeometry x="1785" y="80" width="120" height="60" as="geometry" />
        </mxCell>
        <mxCell id="HVaFLw-ib54RD8AkbQht-1" value="" style="rounded=0;whiteSpace=wrap;html=1;fillColor=#d5e8d4;strokeColor=#82b366;" vertex="1" parent="1">
          <mxGeometry x="134" y="20" width="90" height="30" as="geometry" />
        </mxCell>
        <mxCell id="HVaFLw-ib54RD8AkbQht-2" value="机器操作" style="text;html=1;align=center;verticalAlign=middle;resizable=0;points=[];autosize=1;strokeColor=none;fillColor=none;" vertex="1" parent="1">
          <mxGeometry x="45" y="20" width="70" height="30" as="geometry" />
        </mxCell>
        <mxCell id="HVaFLw-ib54RD8AkbQht-3" value="人工操作" style="text;html=1;align=center;verticalAlign=middle;resizable=0;points=[];autosize=1;strokeColor=none;fillColor=none;" vertex="1" parent="1">
          <mxGeometry x="39" y="68" width="70" height="30" as="geometry" />
        </mxCell>
        <mxCell id="HVaFLw-ib54RD8AkbQht-4" value="" style="rounded=0;whiteSpace=wrap;html=1;" vertex="1" parent="1">
          <mxGeometry x="134" y="68" width="90" height="30" as="geometry" />
        </mxCell>
        <mxCell id="HVaFLw-ib54RD8AkbQht-5" value="操作角色" style="text;html=1;align=center;verticalAlign=middle;resizable=0;points=[];autosize=1;strokeColor=none;fillColor=none;" vertex="1" parent="1">
          <mxGeometry x="39" y="125" width="70" height="30" as="geometry" />
        </mxCell>
        <mxCell id="HVaFLw-ib54RD8AkbQht-6" value="" style="rounded=0;whiteSpace=wrap;html=1;fillColor=#e51400;fontColor=#ffffff;strokeColor=#B20000;" vertex="1" parent="1">
          <mxGeometry x="134" y="125" width="90" height="30" as="geometry" />
        </mxCell>
      </root>
    </mxGraphModel>
  </diagram>
  <diagram id="v-XQsCL0xQYz1sXWIeFm" name="业务数据抽检晾晒">
    <mxGraphModel dx="2049" dy="1296" grid="1" gridSize="10" guides="1" tooltips="1" connect="1" arrows="1" fold="1" page="1" pageScale="1" pageWidth="827" pageHeight="1169" math="0" shadow="0">
      <root>
        <mxCell id="0" />
        <mxCell id="1" parent="0" />
        <mxCell id="W2wh0hkEImfWNzkgunDs-1" style="edgeStyle=orthogonalEdgeStyle;rounded=0;orthogonalLoop=1;jettySize=auto;html=1;entryX=0;entryY=0.5;entryDx=0;entryDy=0;" edge="1" parent="1" source="g999A72bp7EmT8cH8-OS-1" target="0NBS8jo0XPJOAeSmOT06-1">
          <mxGeometry relative="1" as="geometry" />
        </mxCell>
        <mxCell id="g999A72bp7EmT8cH8-OS-1" value="&lt;div style=&quot;text-align: center; font-size: 12px;&quot;&gt;&lt;span style=&quot;background-color: initial; font-size: 12px;&quot;&gt;准确率&lt;/span&gt;&lt;/div&gt;&lt;div style=&quot;text-align: center; font-size: 12px;&quot;&gt;&lt;span style=&quot;background-color: initial; font-size: 12px;&quot;&gt;抽检范围：随机抽取各业务线&lt;/span&gt;&lt;span style=&quot;background-color: initial; font-size: 12px;&quot;&gt;挂靠已认证C3C4业务数据标准，且未抽检过的资产&lt;/span&gt;&lt;/div&gt;" style="whiteSpace=wrap;html=1;align=left;fillColor=#2E75B6;fontColor=#FFFFFF;fontSize=12;" vertex="1" parent="1">
          <mxGeometry x="40" y="240" width="150" height="80" as="geometry" />
        </mxCell>
        <mxCell id="l02C3n_8nuU0FLsroTc5-9" style="edgeStyle=orthogonalEdgeStyle;rounded=0;orthogonalLoop=1;jettySize=auto;html=1;" edge="1" parent="1" source="g999A72bp7EmT8cH8-OS-2" target="mVcgy9e6bVyNburDsAnU-1">
          <mxGeometry relative="1" as="geometry" />
        </mxCell>
        <mxCell id="g999A72bp7EmT8cH8-OS-2" value="&lt;div style=&quot;text-align: center; font-size: 12px;&quot;&gt;召回率&lt;/div&gt;&lt;div style=&quot;text-align: center; font-size: 12px;&quot;&gt;抽检范围：随机抽取各业务线未挂靠C3C4业务数据标准且未抽检过的资产&lt;br style=&quot;font-size: 12px;&quot;&gt;&lt;/div&gt;" style="whiteSpace=wrap;html=1;align=left;fillColor=#2E75B6;fontColor=#FFFFFF;fontSize=12;" vertex="1" parent="1">
          <mxGeometry x="30" y="560" width="150" height="80" as="geometry" />
        </mxCell>
        <mxCell id="g999A72bp7EmT8cH8-OS-3" value="抽检频率：月度&lt;br style=&quot;border-color: var(--border-color);&quot;&gt;&lt;span style=&quot;&quot;&gt;抽样比例：5%&lt;/span&gt;" style="text;html=1;align=center;verticalAlign=middle;resizable=0;points=[];autosize=1;strokeColor=none;fillColor=none;" vertex="1" parent="1">
          <mxGeometry x="60" y="190" width="110" height="40" as="geometry" />
        </mxCell>
        <mxCell id="g999A72bp7EmT8cH8-OS-4" value="" style="rounded=0;whiteSpace=wrap;html=1;fillColor=#d5e8d4;strokeColor=#82b366;" vertex="1" parent="1">
          <mxGeometry x="134" y="20" width="90" height="30" as="geometry" />
        </mxCell>
        <mxCell id="g999A72bp7EmT8cH8-OS-5" value="程序自动操作" style="text;html=1;align=center;verticalAlign=middle;resizable=0;points=[];autosize=1;strokeColor=none;fillColor=none;" vertex="1" parent="1">
          <mxGeometry x="30" y="20" width="100" height="30" as="geometry" />
        </mxCell>
        <mxCell id="g999A72bp7EmT8cH8-OS-6" value="人工操作" style="text;html=1;align=center;verticalAlign=middle;resizable=0;points=[];autosize=1;strokeColor=none;fillColor=none;" vertex="1" parent="1">
          <mxGeometry x="39" y="68" width="70" height="30" as="geometry" />
        </mxCell>
        <mxCell id="g999A72bp7EmT8cH8-OS-7" value="" style="rounded=0;whiteSpace=wrap;html=1;" vertex="1" parent="1">
          <mxGeometry x="134" y="68" width="90" height="30" as="geometry" />
        </mxCell>
        <mxCell id="g999A72bp7EmT8cH8-OS-8" value="操作角色" style="text;html=1;align=center;verticalAlign=middle;resizable=0;points=[];autosize=1;strokeColor=none;fillColor=none;" vertex="1" parent="1">
          <mxGeometry x="39" y="125" width="70" height="30" as="geometry" />
        </mxCell>
        <mxCell id="g999A72bp7EmT8cH8-OS-9" value="" style="rounded=0;whiteSpace=wrap;html=1;fillColor=#e51400;fontColor=#ffffff;strokeColor=#B20000;" vertex="1" parent="1">
          <mxGeometry x="134" y="125" width="90" height="30" as="geometry" />
        </mxCell>
        <mxCell id="r-OO4L4PoBEje8s9DDsQ-2" style="edgeStyle=orthogonalEdgeStyle;rounded=0;orthogonalLoop=1;jettySize=auto;html=1;" edge="1" parent="1" source="mVcgy9e6bVyNburDsAnU-1" target="r-OO4L4PoBEje8s9DDsQ-1">
          <mxGeometry relative="1" as="geometry" />
        </mxCell>
        <mxCell id="mVcgy9e6bVyNburDsAnU-1" value="将抽检数据与业务数据标准库进行匹配" style="whiteSpace=wrap;html=1;align=center;" vertex="1" parent="1">
          <mxGeometry x="260" y="570" width="120" height="60" as="geometry" />
        </mxCell>
        <mxCell id="GI1kqd60PUUDO_OUQgTn-2" value="" style="edgeStyle=orthogonalEdgeStyle;rounded=0;orthogonalLoop=1;jettySize=auto;html=1;" edge="1" parent="1" source="0NBS8jo0XPJOAeSmOT06-1" target="GI1kqd60PUUDO_OUQgTn-1">
          <mxGeometry relative="1" as="geometry" />
        </mxCell>
        <mxCell id="0NBS8jo0XPJOAeSmOT06-1" value="将抽检数据与挂靠标准进行匹配" style="whiteSpace=wrap;html=1;align=center;" vertex="1" parent="1">
          <mxGeometry x="250" y="250" width="120" height="60" as="geometry" />
        </mxCell>
        <mxCell id="3JWiPBnMfFPo0Wx68drU-2" value="是" style="edgeStyle=orthogonalEdgeStyle;rounded=0;orthogonalLoop=1;jettySize=auto;html=1;" edge="1" parent="1" source="GI1kqd60PUUDO_OUQgTn-1" target="3JWiPBnMfFPo0Wx68drU-1">
          <mxGeometry x="-0.0149" relative="1" as="geometry">
            <mxPoint as="offset" />
          </mxGeometry>
        </mxCell>
        <mxCell id="3JWiPBnMfFPo0Wx68drU-4" value="是" style="edgeStyle=orthogonalEdgeStyle;rounded=0;orthogonalLoop=1;jettySize=auto;html=1;" edge="1" parent="1" source="GI1kqd60PUUDO_OUQgTn-1" target="3JWiPBnMfFPo0Wx68drU-3">
          <mxGeometry relative="1" as="geometry" />
        </mxCell>
        <mxCell id="GI1kqd60PUUDO_OUQgTn-1" value="基于库表字段名&lt;br&gt;匹配当前标准判断挂标是否准确" style="rhombus;whiteSpace=wrap;html=1;rounded=0;fillColor=#d5e8d4;strokeColor=#82b366;" vertex="1" parent="1">
          <mxGeometry x="420" y="206.25" width="120" height="147.5" as="geometry" />
        </mxCell>
        <mxCell id="CkpcHxDdFHATyVwHseG9-3" style="edgeStyle=orthogonalEdgeStyle;rounded=0;orthogonalLoop=1;jettySize=auto;html=1;" edge="1" parent="1" source="3JWiPBnMfFPo0Wx68drU-1" target="CkpcHxDdFHATyVwHseG9-1">
          <mxGeometry relative="1" as="geometry" />
        </mxCell>
        <mxCell id="3JWiPBnMfFPo0Wx68drU-1" value="判定挂标无误" style="whiteSpace=wrap;html=1;fillColor=#d5e8d4;strokeColor=#82b366;rounded=0;" vertex="1" parent="1">
          <mxGeometry x="420" y="420" width="120" height="60" as="geometry" />
        </mxCell>
        <mxCell id="CkpcHxDdFHATyVwHseG9-2" style="edgeStyle=orthogonalEdgeStyle;rounded=0;orthogonalLoop=1;jettySize=auto;html=1;" edge="1" parent="1" source="3JWiPBnMfFPo0Wx68drU-3" target="CkpcHxDdFHATyVwHseG9-1">
          <mxGeometry relative="1" as="geometry" />
        </mxCell>
        <mxCell id="3JWiPBnMfFPo0Wx68drU-3" value="判定挂标错误" style="whiteSpace=wrap;html=1;fillColor=#d5e8d4;strokeColor=#82b366;rounded=0;" vertex="1" parent="1">
          <mxGeometry x="620" y="250" width="120" height="60" as="geometry" />
        </mxCell>
        <mxCell id="3lLUiFqcfJWTzZDBsT5E-2" value="" style="edgeStyle=orthogonalEdgeStyle;rounded=0;orthogonalLoop=1;jettySize=auto;html=1;" edge="1" parent="1" source="CkpcHxDdFHATyVwHseG9-1" target="3lLUiFqcfJWTzZDBsT5E-1">
          <mxGeometry relative="1" as="geometry" />
        </mxCell>
        <mxCell id="CkpcHxDdFHATyVwHseG9-1" value="人工核对判定结果" style="whiteSpace=wrap;html=1;" vertex="1" parent="1">
          <mxGeometry x="820" y="250" width="120" height="60" as="geometry" />
        </mxCell>
        <mxCell id="l02C3n_8nuU0FLsroTc5-5" style="edgeStyle=orthogonalEdgeStyle;rounded=0;orthogonalLoop=1;jettySize=auto;html=1;" edge="1" parent="1" source="3lLUiFqcfJWTzZDBsT5E-1" target="l02C3n_8nuU0FLsroTc5-1">
          <mxGeometry relative="1" as="geometry" />
        </mxCell>
        <mxCell id="3lLUiFqcfJWTzZDBsT5E-1" value="输出抽检结果" style="whiteSpace=wrap;html=1;" vertex="1" parent="1">
          <mxGeometry x="1030" y="480" width="120" height="60" as="geometry" />
        </mxCell>
        <mxCell id="l02C3n_8nuU0FLsroTc5-6" style="edgeStyle=orthogonalEdgeStyle;rounded=0;orthogonalLoop=1;jettySize=auto;html=1;" edge="1" parent="1" source="l02C3n_8nuU0FLsroTc5-1" target="l02C3n_8nuU0FLsroTc5-2">
          <mxGeometry relative="1" as="geometry" />
        </mxCell>
        <mxCell id="l02C3n_8nuU0FLsroTc5-1" value="确认抽检结果，反馈疑义项" style="whiteSpace=wrap;html=1;" vertex="1" parent="1">
          <mxGeometry x="1210" y="480" width="120" height="60" as="geometry" />
        </mxCell>
        <mxCell id="l02C3n_8nuU0FLsroTc5-7" style="edgeStyle=orthogonalEdgeStyle;rounded=0;orthogonalLoop=1;jettySize=auto;html=1;" edge="1" parent="1" source="l02C3n_8nuU0FLsroTc5-2" target="l02C3n_8nuU0FLsroTc5-3">
          <mxGeometry relative="1" as="geometry" />
        </mxCell>
        <mxCell id="l02C3n_8nuU0FLsroTc5-2" value="1、纠正结果&lt;br&gt;2、统计各业务线业务数据落标准确率、召回率，晾晒结果至各数据 BP、数据 owner、资产 owner" style="whiteSpace=wrap;html=1;align=left;" vertex="1" parent="1">
          <mxGeometry x="1420" y="460" width="120" height="100" as="geometry" />
        </mxCell>
        <mxCell id="l02C3n_8nuU0FLsroTc5-8" style="edgeStyle=orthogonalEdgeStyle;rounded=0;orthogonalLoop=1;jettySize=auto;html=1;" edge="1" parent="1" source="l02C3n_8nuU0FLsroTc5-3" target="l02C3n_8nuU0FLsroTc5-4">
          <mxGeometry relative="1" as="geometry" />
        </mxCell>
        <mxCell id="l02C3n_8nuU0FLsroTc5-3" value="对挂标异常资产进行整改" style="whiteSpace=wrap;html=1;" vertex="1" parent="1">
          <mxGeometry x="1610" y="480" width="120" height="60" as="geometry" />
        </mxCell>
        <mxCell id="l02C3n_8nuU0FLsroTc5-4" value="1、验收整改结果&lt;br&gt;2、晾晒各中心异常落标整改率" style="whiteSpace=wrap;html=1;align=left;" vertex="1" parent="1">
          <mxGeometry x="1810" y="480" width="120" height="60" as="geometry" />
        </mxCell>
        <mxCell id="r-OO4L4PoBEje8s9DDsQ-5" value="是" style="edgeStyle=orthogonalEdgeStyle;rounded=0;orthogonalLoop=1;jettySize=auto;html=1;" edge="1" parent="1" source="r-OO4L4PoBEje8s9DDsQ-1" target="r-OO4L4PoBEje8s9DDsQ-4">
          <mxGeometry relative="1" as="geometry" />
        </mxCell>
        <mxCell id="Iv_72uJoY2a58FhTpPUF-4" value="否" style="edgeStyle=orthogonalEdgeStyle;rounded=0;orthogonalLoop=1;jettySize=auto;html=1;entryX=0.5;entryY=1;entryDx=0;entryDy=0;" edge="1" parent="1" source="r-OO4L4PoBEje8s9DDsQ-1" target="Iv_72uJoY2a58FhTpPUF-1">
          <mxGeometry relative="1" as="geometry">
            <Array as="points">
              <mxPoint x="480" y="730" />
              <mxPoint x="870" y="730" />
            </Array>
          </mxGeometry>
        </mxCell>
        <mxCell id="r-OO4L4PoBEje8s9DDsQ-1" value="基于库表字段名&lt;br&gt;判断是否可匹配C3C4 业务数据标准" style="rhombus;whiteSpace=wrap;html=1;rounded=0;fillColor=#d5e8d4;strokeColor=#82b366;" vertex="1" parent="1">
          <mxGeometry x="420" y="526.25" width="120" height="147.5" as="geometry" />
        </mxCell>
        <mxCell id="Iv_72uJoY2a58FhTpPUF-2" style="edgeStyle=orthogonalEdgeStyle;rounded=0;orthogonalLoop=1;jettySize=auto;html=1;" edge="1" parent="1" source="r-OO4L4PoBEje8s9DDsQ-4" target="Iv_72uJoY2a58FhTpPUF-1">
          <mxGeometry relative="1" as="geometry" />
        </mxCell>
        <mxCell id="r-OO4L4PoBEje8s9DDsQ-4" value="1、判断业务敏感资产漏挂标准&lt;br&gt;2、识别可能挂靠的标准" style="whiteSpace=wrap;html=1;fillColor=#d5e8d4;strokeColor=#82b366;rounded=0;" vertex="1" parent="1">
          <mxGeometry x="620" y="570" width="120" height="60" as="geometry" />
        </mxCell>
        <mxCell id="Iv_72uJoY2a58FhTpPUF-3" style="edgeStyle=orthogonalEdgeStyle;rounded=0;orthogonalLoop=1;jettySize=auto;html=1;entryX=0.5;entryY=1;entryDx=0;entryDy=0;" edge="1" parent="1" source="Iv_72uJoY2a58FhTpPUF-1" target="3lLUiFqcfJWTzZDBsT5E-1">
          <mxGeometry relative="1" as="geometry" />
        </mxCell>
        <mxCell id="Iv_72uJoY2a58FhTpPUF-1" value="人工核对判定结果" style="whiteSpace=wrap;html=1;" vertex="1" parent="1">
          <mxGeometry x="810" y="570" width="120" height="60" as="geometry" />
        </mxCell>
        <mxCell id="G9Lh_HYv5L4nRn2W2Wrf-1" value="" style="rounded=0;whiteSpace=wrap;html=1;fillColor=none;dashed=1;dashPattern=1 2;strokeColor=#FF3333;strokeWidth=4;perimeterSpacing=0;movable=1;resizable=1;rotatable=1;deletable=1;editable=1;locked=0;connectable=1;" vertex="1" parent="1">
          <mxGeometry x="200" y="180" width="970" height="640" as="geometry" />
        </mxCell>
        <mxCell id="jgHXpmWt8d3OHc7HFbqG-1" value="&lt;font style=&quot;font-size: 15px;&quot;&gt;信息安全&lt;/font&gt;" style="rounded=0;whiteSpace=wrap;html=1;fillColor=#e51400;fontColor=#ffffff;strokeColor=#B20000;align=center;verticalAlign=middle;" vertex="1" parent="1">
          <mxGeometry x="625" y="95" width="120" height="60" as="geometry" />
        </mxCell>
        <mxCell id="jgHXpmWt8d3OHc7HFbqG-2" style="edgeStyle=orthogonalEdgeStyle;rounded=0;orthogonalLoop=1;jettySize=auto;html=1;exitX=0.5;exitY=1;exitDx=0;exitDy=0;" edge="1" parent="1" source="G9Lh_HYv5L4nRn2W2Wrf-1" target="G9Lh_HYv5L4nRn2W2Wrf-1">
          <mxGeometry relative="1" as="geometry" />
        </mxCell>
        <mxCell id="WBKdHOHbRWo0YyJxvbcu-1" value="&lt;font style=&quot;font-size: 15px;&quot;&gt;资产 owner、数据 owner、数据 bp&lt;/font&gt;" style="rounded=0;whiteSpace=wrap;html=1;fillColor=#e51400;fontColor=#ffffff;strokeColor=#B20000;align=center;verticalAlign=middle;" vertex="1" parent="1">
          <mxGeometry x="1210" y="95" width="120" height="60" as="geometry" />
        </mxCell>
        <mxCell id="WBKdHOHbRWo0YyJxvbcu-2" value="&lt;font style=&quot;font-size: 15px;&quot;&gt;信息安全&lt;/font&gt;" style="rounded=0;whiteSpace=wrap;html=1;fillColor=#e51400;fontColor=#ffffff;strokeColor=#B20000;align=center;verticalAlign=middle;" vertex="1" parent="1">
          <mxGeometry x="1410" y="95" width="120" height="60" as="geometry" />
        </mxCell>
        <mxCell id="WBKdHOHbRWo0YyJxvbcu-3" value="&lt;font style=&quot;font-size: 15px;&quot;&gt;信息安全&lt;/font&gt;" style="rounded=0;whiteSpace=wrap;html=1;fillColor=#e51400;fontColor=#ffffff;strokeColor=#B20000;align=center;verticalAlign=middle;" vertex="1" parent="1">
          <mxGeometry x="1800" y="95" width="120" height="60" as="geometry" />
        </mxCell>
        <mxCell id="WBKdHOHbRWo0YyJxvbcu-4" value="&lt;font style=&quot;font-size: 15px;&quot;&gt;数据 BP、资产 owner&lt;/font&gt;" style="rounded=0;whiteSpace=wrap;html=1;fillColor=#e51400;fontColor=#ffffff;strokeColor=#B20000;align=center;verticalAlign=middle;" vertex="1" parent="1">
          <mxGeometry x="1590" y="95" width="120" height="60" as="geometry" />
        </mxCell>
      </root>
    </mxGraphModel>
  </diagram>
</mxfile>
